<svg xmlns="http://www.w3.org/2000/svg" viewBox="0 0 64 64" width="64" height="64">
  <defs>
    <linearGradient id="carGrad" x1="0" y1="0" x2="1" y2="1">
      <stop offset="0%" stop-color="#34e6a8"/>
      <stop offset="100%" stop-color="#0f9c6c"/>
    </linearGradient>
  </defs>
  <rect width="64" height="64" rx="16" fill="#0d1512"/>

  <!-- speed lines -->
  <rect x="4" y="24" width="10" height="2.4" rx="1.2" fill="#14b881" opacity="0.55"/>
  <rect x="2" y="30" width="14" height="2.4" rx="1.2" fill="#14b881" opacity="0.8"/>
  <rect x="5" y="36" width="9" height="2.4" rx="1.2" fill="#14b881" opacity="0.4"/>

  <!-- car body -->
  <path d="M18 39 L21.5 27.5 Q23 23.5 28 23.5 H43 Q47.5 24 49.5 28 L54 39 Z" fill="url(#carGrad)"/>
  <rect x="16" y="37" width="42" height="9.5" rx="4.5" fill="url(#carGrad)"/>

  <!-- windshield cut-out -->
  <path d="M26 27.5 Q27 26.2 29.5 26.2 H40.5 Q43.5 26.6 45 29.5 L45.5 32.5 H25.5 Z" fill="#0d1512"/>

  <!-- wheels -->
  <circle cx="26" cy="47.5" r="6" fill="#0d1512" stroke="#8ff0cf" stroke-width="2.5"/>
  <circle cx="48" cy="47.5" r="6" fill="#0d1512" stroke="#8ff0cf" stroke-width="2.5"/>

  <!-- headlight glint -->
  <circle cx="55.5" cy="41" r="1.6" fill="#eafff5"/>
</svg>
